<?xml version="1.0" encoding="UTF-8" standalone="no"?>
<!-- Created with Inkscape (http://www.inkscape.org/) -->

<svg
   xmlns:dc="http://purl.org/dc/elements/1.1/"
   xmlns:cc="http://creativecommons.org/ns#"
   xmlns:rdf="http://www.w3.org/1999/02/22-rdf-syntax-ns#"
   xmlns:svg="http://www.w3.org/2000/svg"
   xmlns="http://www.w3.org/2000/svg"
   xmlns:sodipodi="http://sodipodi.sourceforge.net/DTD/sodipodi-0.dtd"
   xmlns:inkscape="http://www.inkscape.org/namespaces/inkscape"
   id="svg2"
   version="1.1"
   inkscape:version="0.48.4 r9939"
   width="720.6375"
   height="135.025"
   xml:space="preserve"
   sodipodi:docname="simia_logo.eps"><metadata
     id="metadata8"><rdf:RDF><cc:Work
         rdf:about=""><dc:format>image/svg+xml</dc:format><dc:type
           rdf:resource="http://purl.org/dc/dcmitype/StillImage" /><dc:title></dc:title></cc:Work></rdf:RDF></metadata><defs
     id="defs6" /><sodipodi:namedview
     pagecolor="#ffffff"
     bordercolor="#666666"
     borderopacity="1"
     objecttolerance="10"
     gridtolerance="10"
     guidetolerance="10"
     inkscape:pageopacity="0"
     inkscape:pageshadow="2"
     inkscape:window-width="1920"
     inkscape:window-height="1147"
     id="namedview4"
     showgrid="false"
     inkscape:zoom="2"
     inkscape:cx="298.14125"
     inkscape:cy="96.745101"
     inkscape:window-x="0"
     inkscape:window-y="31"
     inkscape:window-maximized="1"
     inkscape:current-layer="g10" /><g
     id="g10"
     inkscape:groupmode="layer"
     inkscape:label="ink_ext_XXXXXX"
     transform="matrix(1.25,0,0,-1.25,0,135.025)"><g
       id="g12"
       transform="scale(0.1,0.1)"><path
         d="m 2761.34,618.863 c -52.12,0 -87.19,-122.191 -87.19,-236.312 0,-148.133 39.55,-148.133 63.2,-148.133 16.24,0 49.75,17.012 49.75,69.547 l 0,300.93 c -5.88,9.48 -14.16,13.968 -25.76,13.968 z M 238.168,209.586 c 58.73,0 58.73,28.894 58.73,46.168 0,60.516 -8.945,98.949 -34.3,183.055 -7.91,-22.641 -16.215,-45.371 -24.649,-68.477 20.426,-20.828 31.453,-47.816 31.453,-77.359 0,-29.563 -13.097,-62.157 -38.015,-83.215 2.191,-0.074 4.453,-0.172 6.781,-0.172 z M 3032.71,0 C 2956.03,0 2895.89,27.3398 2857.25,79.4883 2809.27,26.6992 2746.85,0 2671.39,0 2594.85,0 2526.84,24.3516 2473.63,70.6484 2409.73,12.6094 2333.12,0 2278.59,0 2206.5,0 2148.42,17.7695 2105.67,52.8984 2063.28,17.3086 2010.83,0 1945.83,0 c -165.12,0 -263.65,115.129 -263.65,308.105 0,16.25 0.68,48.254 1.43,80.883 0.83,35.282 1.54,68.7 1.54,85.887 0,65.219 -10.99,102.637 -30.21,102.637 -30.45,0 -38.75,-56.739 -40.92,-81.114 l 0.25,-488.09722 -311.42,0 0,525.86722 c 0,13.422 -1.79,44.699 -18.25,44.699 -33.36,0 -40.58,-79.027 -40.86,-82.41 l 0.19,-488.15622 -311.418,0 0,9.58982 C 899.562,5.96094 863.871,0 825.828,0 713.492,0 637.168,40.75 598.633,121.309 580.359,108.141 563.77,97.1836 551.465,89.2227 497.734,33.3086 408.316,0 311.648,0 96.6523,0 0,148.703 0,254.336 0,311.867 24.5039,362.277 65.9023,390.598 121.301,526.289 155.281,650.273 169.82,769.379 l 4.711,38.84 292.793,37.359 11.555,-40.773 c 26.183,-92.993 47.5,-165.301 64.832,-223.91 9.894,-33.61 18.535,-62.79 26.012,-88.883 l 0,306.133 311.386,0 0,-518.973 c 0,-44.754 0,-44.754 30.219,-44.754 7.649,0 14.649,1.707 21.184,5.211 l 0,558.516 311.368,0 0,-18.102 c 33.9,16.598 72.67,25 115.73,25 77.65,0 139.09,-26.5 183.02,-78.93 45.75,51.481 107.63,77.539 184.28,77.539 77.45,0 257.65,-29.613 257.65,-303.98 0,-24.082 -1.49,-61.293 -2.96,-98.664 l -0.35,-8.711 c -1.36,-34.445 -2.7,-68.102 -2.7,-89.695 0,-68.184 10.79,-68.184 30.26,-68.184 5.67,0 10.58,0.535 14.6,1.656 -0.65,9.332 -0.92,18.606 -0.92,27.906 l 0,534.165 311.37,0 0,-518.973 c 0,-44.754 0,-44.754 30.21,-44.754 4.1,0 7.99,0.508 11.74,1.512 -10.68,40.632 -16.05,85.722 -16.05,134.218 0,209.438 104.55,434.895 334.12,434.895 17.95,0 55.36,0 93.22,-14.199 l 0,7.301 311.32,0 0,-518.973 c 0,-44.754 0,-44.754 30.27,-44.754 8.08,0 9.15,0.508 10.9,1.34 l 82.23,37.543 -16.2,-92.856 C 3186.21,69.0195 3150.49,0 3032.71,0"
         style="fill:#231f20;fill-opacity:1;fill-rule:nonzero;stroke:none"
         id="path14" /><path
         d="m 2761.34,637.738 c -72.47,0 -105.06,-149.242 -105.06,-255.187 0,-167.024 52.76,-167.024 81.07,-167.024 28.09,0 67.65,27.434 67.65,88.438 l 0,305.941 c -6.79,13.699 -19.54,27.832 -43.66,27.832 z M 181.516,207.277 c 13.546,-11.64 31.738,-16.558 56.652,-16.558 76.613,0 76.613,47.254 76.613,65.035 0,74.187 -12.633,115.48 -50.062,238.012 -0.434,1.382 -0.832,2.75 -1.246,4.152 C 250.105,456.074 234.941,414.672 219.336,372 l -2.652,-7.32 c 22.203,-17.825 34.836,-43.211 34.836,-71.707 0,-39.071 -25.915,-79.344 -70.004,-85.696 z M 3032.71,18.8711 c -80.68,0 -139.72,31.2773 -173.72,91.3169 -46.23,-60.6997 -109.15,-91.3169 -187.6,-91.3169 -77.92,0 -147,27.1406 -198.04,77.0977 -61.04,-62.9571 -137.99,-77.0977 -194.76,-77.0977 -74.77,0 -132.75,19.7578 -172.96,58.7891 -40.87,-39.5118 -93.49,-58.7891 -159.8,-58.7891 -156.18,0 -245.78,105.3869 -245.78,289.2339 0,16.504 0.73,49.375 1.49,82.61 0.78,33.234 1.5,66.902 1.5,84.16 0,80.629 -16.16,121.512 -48.1,121.512 -43.53,0 -55.49,-61.524 -58.72,-98.278 l 0.07,-470.9684 -275.56,0 0,507.0274 c 0,23.75 -4.69,63.578 -36.13,63.578 -47.67,0 -57.26,-82.922 -58.72,-99.512 l 0.12,-471.0934 -275.633,0 0,18.5508 C 913.461,28.0508 871.262,18.8711 825.828,18.8711 711.715,18.8711 638.059,62.8789 606.176,149.867 582.234,131.777 559.449,116.516 540.352,104.172 490.016,50.7109 404.895,18.8711 311.648,18.8711 109.043,18.8711 17.9062,156.562 17.9062,254.336 c 0,53.293 23.5391,99.394 62.1758,123.352 57.383,139.374 92.574,266.82 107.508,389.242 l 2.933,24.32 263.973,33.688 7.192,-25.5 c 26.199,-93.04 47.574,-165.489 64.917,-224.126 33.915,-114.839 52.528,-177.984 60.989,-239.421 l 0,443.382 275.629,0 0,-500.101 c 0,-63.645 9.218,-63.645 48.105,-63.645 14.391,0 27.465,4.625 39.039,13.707 l 0,550.039 275.633,0 0,-31.234 c 36.91,25.332 81.63,38.129 133.61,38.129 81.01,0 141.22,-29.453 182.55,-89.633 43.83,59.266 104.7,88.25 184.75,88.25 89.55,0 239.76,-37.047 239.76,-285.113 0,-24.559 -1.59,-63.027 -3.09,-101.176 -1.43,-36.59 -2.92,-72.957 -2.92,-95.894 0,-87.075 22.29,-87.075 48.15,-87.075 16.66,0 26.71,3.918 33.55,9.102 -1.35,13.297 -2.02,26.289 -2.02,39.351 l 0,515.293 275.64,0 0,-500.101 c 0,-63.645 9.2,-63.645 48.09,-63.645 12.11,0 23.26,3.239 33.43,9.711 -13.14,42.95 -19.87,91.582 -19.87,144.91 0,200.375 98.96,416.02 316.25,416.02 20.96,0 69.44,0 111.12,-24.465 l 0,17.57 275.56,0 0,-500.101 c 0,-63.645 9.24,-63.645 48.13,-63.645 10.57,0 13.78,0.95 18.11,2.922 l 51.34,23.449 -10.11,-58.019 C 3169.38,76.8281 3139.08,18.8711 3032.71,18.8711"
         style="fill:#f9a72b;fill-opacity:1;fill-rule:nonzero;stroke:none"
         id="path16" /><path
         d="m 2834.8,303.965 c 0,-79.942 -53.96,-119.942 -97.45,-119.942 -37.5,0 -110.96,2.797 -110.96,198.528 0,119.91 37.51,286.64 134.95,286.64 47.99,0 67.49,-37.207 73.46,-52.379 l 0,-312.847 z M 238.168,159.215 c -65.961,0 -98.926,31.723 -113.984,96.539 10.519,-13.805 30.031,-17.926 45,-17.926 33.004,0 52.5,27.555 52.5,55.145 0,28.922 -19.496,48.234 -42.004,57.882 31.476,86.805 62.976,168.122 82.468,254.926 61.497,-206.719 82.465,-252.203 82.465,-350.027 0,-71.731 -49.457,-96.539 -106.445,-96.539 z m 2812.552,119.957 0,468.598 -215.92,0 0,-66.184 c -25.47,64.832 -91.46,73.078 -140.92,73.078 -208.45,0 -286.39,-216.391 -286.39,-384.516 0,-62.128 9.36,-113.253 25.28,-155.328 -18.1,-19.062 -41.48,-30.797 -68.7,-30.797 -58.44,0 -77.94,17.946 -77.94,95.149 l 0,468.598 -215.94,0 0,-483.79 c 0,-17.871 1.37,-34.648 3.59,-50.742 -13.95,-18.183 -33.52,-29.215 -64.97,-29.215 -61.5,0 -77.98,40 -77.98,118.579 0,46.859 6,148.859 6,197.07 0,192.949 -95.96,253.601 -209.92,253.601 -59.95,0 -136.42,-16.55 -185.93,-117.164 -40.46,92.36 -106.44,118.555 -181.37,118.555 -51.01,0 -115.47,-12.398 -163.44,-78.574 l 0,71.68 -215.932,0 0,-532.754 c -18.136,-19.211 -41.605,-30.993 -68.91,-30.993 -58.445,0 -77.937,17.946 -77.937,95.149 l 0,468.598 -215.93,0 0,-473.567 C 600.676,261.41 582.434,248.508 563.516,236.441 l 0,8.258 c 0,135.082 -29.981,188.817 -130.43,545.785 L 217.168,762.934 C 200.688,627.875 160.199,491.379 103.246,354.977 71.7422,339.801 47.7383,303.965 47.7383,254.336 c 0,-89.594 88.4567,-204.0157 263.9097,-204.0157 71.957,0 158.895,22.1094 209.895,78.6097 31.113,20.035 66.289,43.922 101.504,74.035 16.363,-93.242 74.707,-152.6447 202.781,-152.6447 42.984,0 102.766,8.8906 154.41,50.4917 l 0,-42.1909 215.932,0 0,442.4529 c 5.95,68.903 34.47,128.141 88.43,128.141 50.97,0 65.98,-50.942 65.98,-95.047 l 0,-475.5469 215.9,0 0,442.4529 c 5.99,67.512 31.48,126.801 88.46,126.801 47.98,0 77.98,-42.789 77.98,-153 0,-34.453 -3.01,-133.668 -3.01,-166.77 0,-155.781 65.98,-257.7847 215.92,-257.7847 55.68,0 115.13,14.0781 160.3,73.9377 31.6,-46.2268 85.74,-73.9377 172.46,-73.9377 54.65,0 136.52,14.0899 194.13,92.0747 51.82,-66.1645 127.15,-92.0747 198.67,-92.0747 106.47,0 161.92,63.4217 193.4,126.8127 19.51,-77.1721 69,-126.8127 167.92,-126.8127 84,0 107.94,35.8867 125.97,139.2307 -9.02,-4.117 -16.5,-5.528 -29.99,-5.528 -58.48,0 -77.97,17.946 -77.97,95.149"
         style="fill:#231f20;fill-opacity:1;fill-rule:nonzero;stroke:none"
         id="path18" /><path
         d="m 4248.27,631.266 c -16.48,0 -51.6,-55.555 -67.14,-162.192 46.58,23.633 76.42,70.723 76.42,124.305 0,24.973 -6.5,37.887 -9.28,37.887 z m -70.36,-339.524 c 7.96,-59.269 30.39,-75.265 95.87,-75.265 69.04,0 107.96,23.808 133.95,47.031 -6.22,32.23 -9.35,67.129 -9.35,103.871 0,12.937 0.33,25.84 1.01,38.59 -51.75,-59.071 -129.79,-99.852 -221.48,-114.227 z m 596.53,339.524 c -26.96,0 -67.71,-100.313 -67.71,-251.485 0,-163.304 49.44,-163.304 106.7,-163.304 75.69,0 117.17,30.3 147.13,61.562 l 0,216.957 c -18.06,-17.734 -41.44,-27.746 -67.64,-27.746 -19.05,0 -52.16,5.703 -82.83,21.883 l -32.94,17.316 7.58,38.028 c 2.68,13.562 3.45,18.093 3.45,31.003 0,38.477 -8.01,55.786 -13.74,55.786 z M 5584.05,0 c -155.15,0 -244.12,109.746 -244.12,301.227 0,25.211 0.76,58.718 1.53,91.582 l 18.04,6.148 -17.87,0.41 c 0.64,29.574 1.28,58.02 1.28,78.289 0,99.856 -23.86,99.856 -31.72,99.856 -31.52,0 -38.71,-72.703 -39.4,-80.996 l 0.2,-488.21522 -311.43,0 0,51.33982 C 4897.35,20.0117 4823.3,0 4739.97,0 4628.8,0 4539.67,35.8594 4480.73,104.023 4406.81,34.9609 4313.6,0 4203.3,0 4109.02,0 4032.15,24.3711 3974.54,72.4805 3923.13,24.9805 3855.41,0 3777.48,0 3612.3,0 3521.35,93.7031 3521.35,263.98 l 0,378.29 -47.99,0 0,155.875 47.99,0 0,184.417 311.42,39.758 0,-224.175 91.41,0 0,-155.875 -91.41,0 0,-363.098 c 0,-44.754 0,-44.754 30.21,-44.754 4.43,0 8.62,0.582 12.67,1.707 -10.26,39.297 -15.44,82.875 -15.44,129.863 0,202.508 95.71,439.055 365.57,439.055 174.34,0 223.73,-99.75 237.53,-163.781 61.17,106.211 162.04,163.781 290.18,163.781 113.67,0 174.57,-42.953 207.07,-86.945 l 0,322.362 311.39,39.77 0,-300.265 c 32.4,15.73 69.13,23.687 109.69,23.687 78.38,0 260.63,-29.062 260.63,-298.48 0,-31.484 -1.56,-71.067 -3.13,-109.313 -1.52,-36.601 -2.86,-70.007 -2.86,-94.632 0,-66.809 9.39,-64.399 31.74,-66.809 33.11,-3.574 97.11,55.352 97.11,55.352 l -1.39,-97.762 C 5763.74,68.3086 5699.93,0 5584.05,0"
         style="fill:#231f20;fill-opacity:1;fill-rule:nonzero;stroke:none"
         id="path20" /><path
         d="m 4248.27,650.148 c -34.77,0 -75.94,-82.691 -88.72,-209.523 68.01,19.293 115.86,79.977 115.86,152.754 0,27.433 -7.11,56.769 -27.14,56.769 z m -90.11,-342.043 c 6.93,-84.886 36.06,-110.472 115.62,-110.472 77.52,0 121.85,28.191 153.66,59.035 -7.45,34.043 -11.15,71.195 -11.15,110.711 0,37.086 2.94,74.512 9.31,111.133 -47.87,-101.75 -157.74,-157.539 -267.44,-170.407 z m 616.28,342.043 c -46.39,0 -85.6,-123.859 -85.6,-270.367 0,-168.785 53.98,-182.148 124.59,-182.148 83.51,0 129.47,33.863 165.04,72.652 l 0,299.102 c -9.38,-50.289 -41.98,-83.282 -85.55,-83.282 -18.42,0 -48.75,6.18 -74.81,19.911 l -20.59,10.839 4.73,23.793 c 2.81,14.387 3.83,20.079 3.83,34.832 0,27.895 -4.12,74.668 -31.64,74.668 z M 5584.05,18.8711 c -145.88,0 -226.24,100.3239 -226.24,282.3559 0,25.757 0.83,60.332 1.59,93.851 0.7,31.137 1.4,61.309 1.4,82.578 0,118.731 -34.76,118.731 -49.61,118.731 -45.24,0 -55.27,-75.157 -57.22,-98.153 l 0.13,-471.0934 -275.63,0 0,67.4414 c -66.02,-50.2734 -145.91,-75.7109 -238.5,-75.7109 -114.42,0 -202.61,38.7305 -257.72,112.4489 C 4409.68,56.6797 4316.02,18.8711 4203.3,18.8711 c -96.94,0 -173.92,26.5078 -229.39,78.8242 -49.28,-51.6836 -116.49,-78.8242 -196.43,-78.8242 -155.86,0 -238.24,84.7419 -238.24,245.1089 l 0,397.165 -47.99,0 0,118.128 47.99,0 0,186.571 275.63,35.196 0,-221.767 91.43,0 0,-118.128 -91.43,0 0,-381.973 c 0,-63.645 9.21,-63.645 48.11,-63.645 12.45,0 23.92,3.411 34.27,10.153 -12.7,41.511 -19.16,88.558 -19.16,140.308 0,193.809 91.07,420.18 347.69,420.18 208.54,0 224.78,-146.52 224.78,-191.387 0,-8.929 -0.39,-17.648 -1.11,-26.195 45.05,122.801 139.49,217.582 304.04,217.582 147.5,0 211.53,-77.168 224.98,-153.926 l 0,391.468 275.63,35.23 0,-310.901 c 35.6,24.399 78.25,36.746 127.54,36.746 90.67,0 242.74,-36.367 242.74,-279.613 0,-31.828 -1.61,-71.891 -3.18,-110.508 -1.46,-34.883 -2.81,-68.617 -2.81,-93.437 0,-81.539 18.88,-83.989 49.63,-85.7 41.55,-2.312 78.67,37.727 78.67,37.727 l -0.84,-60.93 c 0,-113.5232 -55.95,-173.4529 -161.8,-173.4529"
         style="fill:#f9a72b;fill-opacity:1;fill-rule:nonzero;stroke:none"
         id="path22" /><path
         d="m 4248.27,681.586 c 28.52,0 56.99,-24.774 56.99,-88.207 0,-102 -77.99,-183.262 -178.44,-190.168 7.48,148.859 53.96,278.375 121.45,278.375 z M 5668.02,184.023 c -62.95,0 -79.47,40 -79.47,117.204 0,52.351 5.98,143.343 5.98,203.945 0,186.094 -95.96,248.101 -212.89,248.101 -46.48,0 -109.44,-11.007 -157.42,-77.183 l 0,347.32 -215.92,-27.59 0,-738.05 c -46.93,-54 -101.94,-91.641 -194.87,-91.641 -100.44,0 -154.45,42.73 -154.45,213.652 0,136.391 34.51,301.805 115.46,301.805 35.97,0 61.48,-31.672 61.48,-106.106 0,-17.906 -1.51,-26.203 -4.49,-41.312 21.03,-11.086 46.52,-16.594 61.49,-16.594 35.96,0 58.45,34.496 58.45,82.715 0,64.801 -41.97,154.375 -197.88,154.375 -250.43,0 -307.37,-231.582 -307.37,-387.285 0,-45.727 5.18,-85.606 14.47,-120.551 -44.62,-48.101 -98.01,-80.699 -186.81,-80.699 -107.97,0 -143.94,48.25 -146.96,170.926 148.41,6.894 293.88,93.707 293.88,257.726 0,28.93 -4.52,159.883 -194.92,159.883 -250.37,0 -317.86,-228.793 -317.86,-388.676 0,-59.258 8.8,-109.019 24.54,-150.41 -18.19,-19.578 -41.9,-31.555 -69.48,-31.555 -58.48,0 -77.99,17.946 -77.99,95.149 l 0,413.449 91.47,0 0,55.149 -91.47,0 0,217.757 -215.93,-27.578 0,-190.179 -47.98,0 0,-55.149 47.98,0 0,-428.641 c 0,-128.16 53.99,-213.6597 208.42,-213.6597 54.97,0 137.58,14.1914 195.32,93.5587 52.59,-64.8595 133.7,-93.5587 230.5,-93.5587 135.24,0 222.76,56.5077 282.74,131.4137 49.65,-92.3863 141.8,-131.4137 253.93,-131.4137 124.09,0 208.56,47.6211 268.33,113.3277 l 0,-105.0269 215.92,0 0,442.4529 c 5.98,68.903 33,126.801 86.97,126.801 50.97,0 79.48,-42.789 79.48,-150.219 0,-44.14 -3.03,-126.801 -3.03,-176.429 0,-135.098 48,-250.9067 196.41,-250.9067 85.47,0 131.94,42.8008 131.94,142.0037 -7.49,-5.504 -22.49,-8.301 -47.97,-8.301"
         style="fill:#231f20;fill-opacity:1;fill-rule:nonzero;stroke:none"
         id="path24" /><path
         d="m 3341.28,242.406 c -74.96,0 -133.64,53.332 -133.64,121.406 0,67.54 59.95,122.469 133.64,122.469 74.39,0 134.87,-54.929 134.87,-122.469 0,-66.933 -60.48,-121.406 -134.87,-121.406"
         style="fill:#231f20;fill-opacity:1;fill-rule:nonzero;stroke:none"
         id="path26" /><path
         d="m 3341.28,256.75 c -66.87,0 -119.27,47.035 -119.27,107.062 0,59.59 53.5,108.098 119.27,108.098 66.43,0 120.47,-48.508 120.47,-108.098 0,-59.015 -54.04,-107.062 -120.47,-107.062"
         style="fill:#f9a72b;fill-opacity:1;fill-rule:nonzero;stroke:none"
         id="path28" /><path
         d="m 3341.28,280.801 c 53.1,0 96.46,36.738 96.46,83.011 0,46.262 -43.36,84.051 -96.46,84.051 -53.07,0 -95.25,-37.789 -95.25,-84.051 0,-46.273 42.18,-83.011 95.25,-83.011"
         style="fill:#212322;fill-opacity:1;fill-rule:nonzero;stroke:none"
         id="path30" /><path
         d="m 2187.35,835.168 c -74.96,0 -133.64,53.328 -133.64,121.398 0,67.544 59.95,122.474 133.64,122.474 74.4,0 134.87,-54.93 134.87,-122.474 0,-66.925 -60.47,-121.398 -134.87,-121.398"
         style="fill:#231f20;fill-opacity:1;fill-rule:nonzero;stroke:none"
         id="path32" /><path
         d="m 2187.35,849.508 c -66.86,0 -119.27,47.035 -119.27,107.058 0,59.594 53.5,108.104 119.27,108.104 66.44,0 120.47,-48.51 120.47,-108.104 0,-59.015 -54.03,-107.058 -120.47,-107.058"
         style="fill:#f9a72b;fill-opacity:1;fill-rule:nonzero;stroke:none"
         id="path34" /><path
         d="m 2187.35,873.559 c 53.11,0 96.47,36.738 96.47,83.007 0,46.264 -43.36,84.054 -96.47,84.054 -53.07,0 -95.25,-37.79 -95.25,-84.054 0,-46.269 42.18,-83.007 95.25,-83.007"
         style="fill:#212322;fill-opacity:1;fill-rule:nonzero;stroke:none"
         id="path36" /><path
         d="m 729.363,835.168 c -74.961,0 -133.64,53.328 -133.64,121.398 0,67.544 59.953,122.474 133.64,122.474 74.399,0 134.871,-54.93 134.871,-122.474 0,-66.925 -60.472,-121.398 -134.871,-121.398"
         style="fill:#231f20;fill-opacity:1;fill-rule:nonzero;stroke:none"
         id="path38" /><path
         d="m 729.363,849.508 c -66.863,0 -119.265,47.035 -119.265,107.058 0,59.594 53.496,108.104 119.265,108.104 66.438,0 120.473,-48.51 120.473,-108.104 0,-59.015 -54.035,-107.058 -120.473,-107.058"
         style="fill:#f9a72b;fill-opacity:1;fill-rule:nonzero;stroke:none"
         id="path40" /><path
         d="m 729.363,873.559 c 53.11,0 96.465,36.738 96.465,83.007 0,46.264 -43.355,84.054 -96.465,84.054 -53.07,0 -95.246,-37.79 -95.246,-84.054 0,-46.269 42.176,-83.007 95.246,-83.007"
         style="fill:#212322;fill-opacity:1;fill-rule:nonzero;stroke:none"
         id="path42" /></g></g></svg>